<svg xmlns="http://www.w3.org/2000/svg" width="35" height="35" viewBox="0 0 35 35">
  <g id="call" transform="translate(0.52 0.238)">
    <g id="Group_1" data-name="Group 1" transform="translate(-0.282)">
      <circle id="Ellipse_1" data-name="Ellipse 1" cx="17.5" cy="17.5" r="17.5" transform="translate(-0.238 -0.238)" fill="#ffedce"/>
      <path id="Icon_ionic-ios-call" data-name="Icon ionic-ios-call" d="M17.9,15.317a11.6,11.6,0,0,0-2.423-1.622c-.726-.349-.992-.342-1.507.029-.428.309-.7.6-1.2.489a7.142,7.142,0,0,1-2.405-1.78,7.091,7.091,0,0,1-1.78-2.405c-.1-.5.183-.769.489-1.2.37-.514.381-.78.029-1.507A11.372,11.372,0,0,0,7.487,4.9c-.529-.529-.647-.413-.938-.309a5.34,5.34,0,0,0-.859.457A2.592,2.592,0,0,0,4.657,6.137c-.2.442-.442,1.266.766,3.416a19.06,19.06,0,0,0,3.351,4.469h0l0,0,0,0h0A19.134,19.134,0,0,0,13.25,17.38c2.15,1.208,2.974.971,3.416.766a2.548,2.548,0,0,0,1.089-1.032,5.34,5.34,0,0,0,.457-.859C18.316,15.964,18.435,15.845,17.9,15.317Z" transform="translate(6.256 5.855)" fill="#b79963"/>
    </g>
  </g>
</svg>
