<svg xmlns="http://www.w3.org/2000/svg" width="25" height="25" viewBox="0 0 25 25">
  <g id="Group_8" data-name="Group 8" transform="translate(0.282)">
    <g id="Group_1" data-name="Group 1">
      <circle id="Ellipse_1" data-name="Ellipse 1" cx="12.5" cy="12.5" r="12.5" transform="translate(-0.282)" fill="#ffedce"/>
      <path id="Icon_awesome-whatsapp" data-name="Icon awesome-whatsapp" d="M8.757,3.747A5.105,5.105,0,0,0,.724,9.906L0,12.55l2.706-.71a5.088,5.088,0,0,0,2.439.621h0a5.153,5.153,0,0,0,5.152-5.1A5.124,5.124,0,0,0,8.757,3.747ZM5.147,11.6a4.235,4.235,0,0,1-2.161-.591l-.154-.092-1.6.421.428-1.566-.1-.161A4.25,4.25,0,1,1,9.437,7.356,4.289,4.289,0,0,1,5.147,11.6ZM7.474,8.423c-.126-.064-.754-.372-.871-.414s-.2-.064-.287.064-.329.414-.4.5-.149.1-.276.032A3.471,3.471,0,0,1,3.9,7.089c-.131-.225.131-.209.375-.7a.236.236,0,0,0-.011-.223c-.032-.064-.287-.692-.393-.947S3.66,5.009,3.582,5s-.159,0-.244,0A.472.472,0,0,0,3,5.158a1.433,1.433,0,0,0-.446,1.064,2.5,2.5,0,0,0,.52,1.32A5.7,5.7,0,0,0,5.251,9.469a2.5,2.5,0,0,0,1.531.32,1.306,1.306,0,0,0,.86-.607,1.067,1.067,0,0,0,.074-.607C7.686,8.517,7.6,8.485,7.474,8.423Z" transform="translate(7.35 5.1)" fill="#b79963"/>
    </g>
  </g>
</svg>
