<svg xmlns="http://www.w3.org/2000/svg" width="25" height="25" viewBox="0 0 25 25">
  <g id="Group_6" data-name="Group 6" transform="translate(0.282)">
    <g id="Group_1" data-name="Group 1">
      <circle id="Ellipse_1" data-name="Ellipse 1" cx="12.5" cy="12.5" r="12.5" transform="translate(-0.282)" fill="#ffedce"/>
      <g id="website" transform="translate(6.408 7.351)">
        <g id="Group_15" data-name="Group 15" transform="translate(0)">
          <path id="Path_51" data-name="Path 51" d="M11.3,39.644H.888A.889.889,0,0,0,0,40.532v8.522a.889.889,0,0,0,.888.888H11.3a.889.889,0,0,0,.888-.888V40.532a.889.889,0,0,0-.888-.888Zm.531,1.984H2.8a.178.178,0,0,0,0,.357h9.024v7.069a.531.531,0,0,1-.531.531H.888a.531.531,0,0,1-.531-.531V41.985H1.969a.178.178,0,0,0,0-.357H.357v-1.1A.531.531,0,0,1,.888,40H11.3a.531.531,0,0,1,.531.531v1.1Z" transform="translate(0 -39.644)" fill="#b79963" stroke="#b79963" stroke-width="0.1"/>
          <circle id="Ellipse_2" data-name="Ellipse 2" cx="0.178" cy="0.178" r="0.178" transform="translate(1.37 0.992)" fill="#b79963" stroke="#b79963" stroke-width="0.1"/>
          <circle id="Ellipse_3" data-name="Ellipse 3" cx="0.178" cy="0.178" r="0.178" transform="translate(2.209 0.992)" fill="#b79963" stroke="#b79963" stroke-width="0.1"/>
          <circle id="Ellipse_4" data-name="Ellipse 4" cx="0.178" cy="0.178" r="0.178" transform="translate(3.048 0.992)" fill="#b79963" stroke="#b79963" stroke-width="0.1"/>
          <path id="Path_52" data-name="Path 52" d="M404.223,81.322h-1.045a.178.178,0,0,0,0,.357h1.045a.178.178,0,0,0,0-.357Z" transform="translate(-393.41 -80.33)" fill="#b79963" stroke="#b79963" stroke-width="0.1"/>
          <path id="Path_53" data-name="Path 53" d="M196.434,315.661a.176.176,0,1,0,.176-.176A.176.176,0,0,0,196.434,315.661Z" transform="translate(-191.759 -308.921)" fill="#b79963" stroke="#b79963" stroke-width="0.1"/>
          <path id="Path_54" data-name="Path 54" d="M301.1,315.661a.176.176,0,1,0,.176-.176A.176.176,0,0,0,301.1,315.661Z" transform="translate(-293.935 -308.921)" fill="#b79963" stroke="#b79963" stroke-width="0.1"/>
          <path id="Path_55" data-name="Path 55" d="M113.508,269.124l-.213.609-.21-.616v0a.178.178,0,0,0-.336,0h0l-.222.624-.21-.612a.178.178,0,0,0-.338.116l.376,1.095a.178.178,0,0,0,.168.12h0a.179.179,0,0,0,.168-.119l.222-.622.211.62a.179.179,0,0,0,.168.121h0a.179.179,0,0,0,.168-.119l.384-1.1a.178.178,0,1,0-.337-.118Z" transform="translate(-109.303 -263.539)" fill="#b79963" stroke="#b79963" stroke-width="0.1"/>
          <path id="Path_56" data-name="Path 56" d="M217.879,269.121l-.213.609-.21-.616v0a.178.178,0,0,0-.336,0h0l-.222.624-.21-.612a.178.178,0,0,0-.338.116l.376,1.095a.178.178,0,0,0,.168.12h0a.178.178,0,0,0,.168-.119l.222-.622.211.62a.179.179,0,0,0,.168.121h0a.179.179,0,0,0,.168-.119l.384-1.1a.178.178,0,0,0-.337-.118Z" transform="translate(-211.19 -263.535)" fill="#b79963" stroke="#b79963" stroke-width="0.1"/>
          <path id="Path_57" data-name="Path 57" d="M322.249,269.127l-.213.609-.21-.616a.179.179,0,0,0-.337,0h0l-.222.624-.21-.612a.178.178,0,0,0-.338.116l.376,1.095a.178.178,0,0,0,.168.12h0a.178.178,0,0,0,.168-.119l.222-.622.211.62a.179.179,0,0,0,.168.121h0a.179.179,0,0,0,.168-.119l.384-1.1a.178.178,0,1,0-.337-.118Z" transform="translate(-313.077 -263.542)" fill="#b79963" stroke="#b79963" stroke-width="0.1"/>
          <path id="Path_58" data-name="Path 58" d="M58.987,163.681V165.9a.671.671,0,0,0,.671.671h1.251a3.289,3.289,0,0,0,5.533,0h1.291a.671.671,0,0,0,.671-.671v-.712a.178.178,0,1,0-.357,0v.712a.314.314,0,0,1-.314.314H59.658a.314.314,0,0,1-.314-.314v-2.215a.314.314,0,0,1,.314-.314h8.076a.314.314,0,0,1,.314.314v.663a.178.178,0,0,0,.357,0v-.663a.671.671,0,0,0-.671-.671H66.442a3.289,3.289,0,0,0-5.533,0H59.658A.671.671,0,0,0,58.987,163.681Zm6.3,2.886h.718a2.928,2.928,0,0,1-1.252.948A3.132,3.132,0,0,0,65.287,166.567Zm-1.434,0H64.9a1.776,1.776,0,0,1-1.051,1.133Zm-.357,0V167.7a1.776,1.776,0,0,1-1.051-1.133Zm-1.434,0a3.133,3.133,0,0,0,.534.948,2.928,2.928,0,0,1-1.252-.948Zm3.942-3.556h-.718a3.132,3.132,0,0,0-.534-.948A2.927,2.927,0,0,1,66.005,163.01Zm-2.152-1.133A1.776,1.776,0,0,1,64.9,163.01H63.854Zm-.357,0v1.133H62.446A1.776,1.776,0,0,1,63.5,161.877Zm-.9.185a3.133,3.133,0,0,0-.534.948h-.718A2.927,2.927,0,0,1,62.6,162.062Z" transform="translate(-57.583 -158.6)" fill="#b79963" stroke="#b79963" stroke-width="0.1"/>
        </g>
      </g>
    </g>
  </g>
</svg>
