<svg xmlns="http://www.w3.org/2000/svg" width="25" height="25" viewBox="0 0 25 25">
  <g id="Group_1" data-name="Group 1" transform="translate(0.282)">
    <circle id="Ellipse_1" data-name="Ellipse 1" cx="12.5" cy="12.5" r="12.5" transform="translate(-0.282)" fill="#ffedce"/>
    <g id="mail" transform="translate(7.16 -65.872)">
      <g id="Group_34" data-name="Group 34" transform="translate(0 75)">
        <path id="Path_62" data-name="Path 62" d="M9.6,75H.519A.52.52,0,0,0,0,75.518v5.706a.52.52,0,0,0,.519.519H9.6a.52.52,0,0,0,.519-.519V75.518A.52.52,0,0,0,9.6,75Zm-.195.389L5.356,78.423a.542.542,0,0,1-.6,0L.713,75.389ZM7.241,78.624l2.2,2.724.007.007H.663l.007-.007,2.2-2.724a.195.195,0,0,0-.3-.245l-2.183,2.7V75.632l4.137,3.1a.929.929,0,0,0,1.063,0l4.137-3.1v5.444l-2.183-2.7a.195.195,0,0,0-.3.245Z" transform="translate(0 -75)" fill="none" stroke="#b79963" stroke-width="0.4"/>
      </g>
    </g>
  </g>
</svg>
