<svg xmlns="http://www.w3.org/2000/svg" width="25" height="25" viewBox="0 0 25 25">
  <g id="Group_7" data-name="Group 7" transform="translate(0.282)">
    <g id="Group_1" data-name="Group 1">
      <circle id="Ellipse_1" data-name="Ellipse 1" cx="12.5" cy="12.5" r="12.5" transform="translate(-0.282)" fill="#ffedce"/>
      <path id="Icon_awesome-instagram" data-name="Icon awesome-instagram" d="M5.146,4.746a2.64,2.64,0,1,0,2.64,2.64A2.636,2.636,0,0,0,5.146,4.746Zm0,4.357A1.716,1.716,0,1,1,6.862,7.386,1.72,1.72,0,0,1,5.146,9.1ZM8.51,4.638a.616.616,0,1,1-.616-.616A.614.614,0,0,1,8.51,4.638Zm1.749.625a3.047,3.047,0,0,0-.832-2.158,3.067,3.067,0,0,0-2.158-.832c-.85-.048-3.4-.048-4.249,0A3.063,3.063,0,0,0,.863,3.1,3.057,3.057,0,0,0,.031,5.261c-.048.85-.048,3.4,0,4.249a3.047,3.047,0,0,0,.832,2.158A3.071,3.071,0,0,0,3.02,12.5c.85.048,3.4.048,4.249,0a3.047,3.047,0,0,0,2.158-.832,3.067,3.067,0,0,0,.832-2.158c.048-.85.048-3.4,0-4.246Zm-1.1,5.158a1.738,1.738,0,0,1-.979.979,11.348,11.348,0,0,1-3.035.207A11.437,11.437,0,0,1,2.11,11.4a1.738,1.738,0,0,1-.979-.979A11.348,11.348,0,0,1,.925,7.386a11.437,11.437,0,0,1,.207-3.035,1.738,1.738,0,0,1,.979-.979,11.348,11.348,0,0,1,3.035-.207,11.437,11.437,0,0,1,3.035.207,1.738,1.738,0,0,1,.979.979,11.348,11.348,0,0,1,.207,3.035A11.342,11.342,0,0,1,9.16,10.422Z" transform="translate(7.355 5.114)" fill="#b79963"/>
    </g>
  </g>
</svg>
