<svg xmlns="http://www.w3.org/2000/svg" width="25" height="25" viewBox="0 0 25 25">
  <g id="Group_4" data-name="Group 4" transform="translate(0.282)">
    <g id="Group_1" data-name="Group 1">
      <circle id="Ellipse_1" data-name="Ellipse 1" cx="12.5" cy="12.5" r="12.5" transform="translate(-0.282)" fill="#ffedce"/>
      <path id="Icon_ionic-ios-call" data-name="Icon ionic-ios-call" d="M14.2,12.333a8.4,8.4,0,0,0-1.755-1.174c-.526-.253-.719-.247-1.091.021-.31.224-.51.432-.867.354a5.172,5.172,0,0,1-1.742-1.289A5.135,5.135,0,0,1,7.459,8.5c-.076-.359.133-.557.354-.867.268-.372.276-.565.021-1.091A8.234,8.234,0,0,0,6.66,4.791c-.383-.383-.469-.3-.68-.224a3.867,3.867,0,0,0-.622.331,1.877,1.877,0,0,0-.747.789c-.148.32-.32.916.555,2.473A13.8,13.8,0,0,0,7.592,11.4h0l0,0,0,0h0a13.855,13.855,0,0,0,3.236,2.427c1.557.875,2.153.7,2.473.555a1.845,1.845,0,0,0,.789-.747,3.867,3.867,0,0,0,.331-.622C14.5,12.8,14.588,12.716,14.2,12.333Z" transform="translate(3.009 2.997)" fill="#b79963"/>
    </g>
  </g>
</svg>
