<svg xmlns="http://www.w3.org/2000/svg" width="25" height="25" viewBox="0 0 25 25">
  <g id="Group_9" data-name="Group 9" transform="translate(0.282)">
    <g id="Group_1" data-name="Group 1">
      <circle id="Ellipse_1" data-name="Ellipse 1" cx="12.5" cy="12.5" r="12.5" transform="translate(-0.282)" fill="#ffedce"/>
      <path id="Icon_simple-wechat" data-name="Icon simple-wechat" d="M12.172,8.6a3.42,3.42,0,0,0-1.6-1.629,4.4,4.4,0,0,0-3.945.016A3.271,3.271,0,0,0,4.881,9.135a2.764,2.764,0,0,0,.352,2.048A3.776,3.776,0,0,0,7.8,12.863a4.733,4.733,0,0,0,2.243-.147c.435.169.823.442,1.245.644-.109-.366-.225-.727-.35-1.087a3.515,3.515,0,0,0,1.16-1.282A2.78,2.78,0,0,0,12.172,8.6ZM7.04,3.7a5.23,5.23,0,0,0-4.285-.334A4.36,4.36,0,0,0,.509,5.137,3.316,3.316,0,0,0,.1,7.68,3.894,3.894,0,0,0,1.782,9.962c-.155.44-.3.879-.442,1.321.5-.264,1.008-.539,1.513-.807a5.616,5.616,0,0,0,1.893.268,3.185,3.185,0,0,1-.132-1.526A3.238,3.238,0,0,1,5.645,7.38,4.472,4.472,0,0,1,9,6.278,3.914,3.914,0,0,0,7.026,3.7H7.04Zm.9,5.165a.509.509,0,1,1-.652-.657.515.515,0,0,1,.652.657Zm2.479.048a.52.52,0,0,1-.815.14.774.774,0,0,1-.178-.377A.572.572,0,0,1,9.9,8.184a.518.518,0,0,1,.5.732h.008Zm-3.7-3.337a.748.748,0,1,1,0-.006v.006ZM3.583,5.7a.635.635,0,1,1-.828-.751A.639.639,0,0,1,3.583,5.7Z" transform="translate(6.296 4.29)" fill="#b79963"/>
    </g>
  </g>
</svg>
