<svg xmlns="http://www.w3.org/2000/svg" width="35" height="35" viewBox="0 0 35 35">
  <g id="instagram" transform="translate(0.666 0.384)">
    <g id="Group_1" data-name="Group 1" transform="translate(-0.282)">
      <circle id="Ellipse_1" data-name="Ellipse 1" cx="17.5" cy="17.5" r="17.5" transform="translate(-0.384 -0.384)" fill="#ffedce"/>
      <path id="Icon_awesome-instagram" data-name="Icon awesome-instagram" d="M7.048,5.673a3.615,3.615,0,1,0,3.615,3.615A3.609,3.609,0,0,0,7.048,5.673Zm0,5.965A2.35,2.35,0,1,1,9.4,9.288,2.354,2.354,0,0,1,7.048,11.638Zm4.606-6.113a.843.843,0,1,1-.843-.843A.841.841,0,0,1,11.654,5.525Zm2.394.856a4.173,4.173,0,0,0-1.139-2.954A4.2,4.2,0,0,0,9.955,2.287c-1.164-.066-4.653-.066-5.817,0A4.194,4.194,0,0,0,1.183,3.423,4.186,4.186,0,0,0,.044,6.377c-.066,1.164-.066,4.653,0,5.817a4.173,4.173,0,0,0,1.139,2.954,4.206,4.206,0,0,0,2.954,1.139c1.164.066,4.653.066,5.817,0a4.173,4.173,0,0,0,2.954-1.139,4.2,4.2,0,0,0,1.139-2.954C14.114,11.031,14.114,7.545,14.048,6.38Zm-1.5,7.063a2.379,2.379,0,0,1-1.34,1.34,15.539,15.539,0,0,1-4.156.283,15.66,15.66,0,0,1-4.156-.283,2.379,2.379,0,0,1-1.34-1.34,15.539,15.539,0,0,1-.283-4.156,15.66,15.66,0,0,1,.283-4.156,2.379,2.379,0,0,1,1.34-1.34,15.539,15.539,0,0,1,4.156-.283,15.66,15.66,0,0,1,4.156.283,2.379,2.379,0,0,1,1.34,1.34,15.539,15.539,0,0,1,.283,4.156A15.53,15.53,0,0,1,12.544,13.444Z" transform="translate(10.456 7.828)" fill="#b79963"/>
    </g>
  </g>
</svg>
