<svg xmlns="http://www.w3.org/2000/svg" width="35" height="35" viewBox="0 0 35 35">
  <g id="website" transform="translate(0.568 0.286)">
    <g id="Group_1" data-name="Group 1" transform="translate(-0.282)">
      <circle id="Ellipse_1" data-name="Ellipse 1" cx="17.5" cy="17.5" r="17.5" transform="translate(-0.286 -0.286)" fill="#ffedce"/>
      <g id="website-2" data-name="website" transform="translate(9.213 10.124)">
        <g id="Group_15" data-name="Group 15" transform="translate(0)">
          <path id="Path_51" data-name="Path 51" d="M15.557,39.644H1.222A1.224,1.224,0,0,0,0,40.866V52.6a1.224,1.224,0,0,0,1.222,1.223H15.557A1.224,1.224,0,0,0,16.779,52.6V40.866a1.224,1.224,0,0,0-1.223-1.222Zm.731,2.732H3.86a.246.246,0,0,0,0,.492H16.287V52.6a.732.732,0,0,1-.731.731H1.222A.732.732,0,0,1,.492,52.6V42.867h2.22a.246.246,0,0,0,0-.492H.492V40.866a.732.732,0,0,1,.731-.731H15.557a.732.732,0,0,1,.731.731v1.509Z" transform="translate(0 -39.644)" fill="#b79963" stroke="#b79963" stroke-width="0.1"/>
          <circle id="Ellipse_2" data-name="Ellipse 2" cx="0.245" cy="0.245" r="0.245" transform="translate(1.887 1.367)" fill="#b79963" stroke="#b79963" stroke-width="0.1"/>
          <circle id="Ellipse_3" data-name="Ellipse 3" cx="0.245" cy="0.245" r="0.245" transform="translate(3.042 1.367)" fill="#b79963" stroke="#b79963" stroke-width="0.1"/>
          <circle id="Ellipse_4" data-name="Ellipse 4" cx="0.245" cy="0.245" r="0.245" transform="translate(4.197 1.367)" fill="#b79963" stroke="#b79963" stroke-width="0.1"/>
          <path id="Path_52" data-name="Path 52" d="M404.685,81.322h-1.439a.246.246,0,0,0,0,.492h1.439a.246.246,0,0,0,0-.492Z" transform="translate(-389.793 -79.956)" fill="#b79963" stroke="#b79963" stroke-width="0.1"/>
          <path id="Path_53" data-name="Path 53" d="M196.434,315.728a.243.243,0,1,0,.243-.243A.243.243,0,0,0,196.434,315.728Z" transform="translate(-189.997 -306.445)" fill="#b79963" stroke="#b79963" stroke-width="0.1"/>
          <path id="Path_54" data-name="Path 54" d="M301.1,315.728a.243.243,0,1,0,.243-.243A.243.243,0,0,0,301.1,315.728Z" transform="translate(-291.233 -306.445)" fill="#b79963" stroke="#b79963" stroke-width="0.1"/>
          <path id="Path_55" data-name="Path 55" d="M114.089,269.172l-.294.839-.289-.848v0a.246.246,0,0,0-.463,0v0l-.306.859-.29-.843a.246.246,0,0,0-.465.16l.518,1.508a.246.246,0,0,0,.231.166h0a.246.246,0,0,0,.232-.163l.305-.857.291.854a.246.246,0,0,0,.232.166h0a.246.246,0,0,0,.232-.164l.529-1.509a.246.246,0,1,0-.464-.163Z" transform="translate(-108.298 -261.48)" fill="#b79963" stroke="#b79963" stroke-width="0.1"/>
          <path id="Path_56" data-name="Path 56" d="M218.46,269.169l-.294.839-.289-.848v0a.246.246,0,0,0-.463,0v0l-.306.859-.29-.843a.246.246,0,0,0-.465.16l.518,1.508a.246.246,0,0,0,.231.166h0a.246.246,0,0,0,.232-.163l.305-.857.291.854a.246.246,0,0,0,.232.166h0a.246.246,0,0,0,.232-.164l.529-1.509a.246.246,0,0,0-.464-.163Z" transform="translate(-209.249 -261.477)" fill="#b79963" stroke="#b79963" stroke-width="0.1"/>
          <path id="Path_57" data-name="Path 57" d="M322.83,269.175l-.294.839-.289-.848a.246.246,0,0,0-.463,0v0l-.306.859-.29-.843a.246.246,0,0,0-.465.16l.518,1.508a.246.246,0,0,0,.231.166h0a.246.246,0,0,0,.231-.163l.305-.857.291.854a.246.246,0,0,0,.232.166h0a.246.246,0,0,0,.232-.164l.529-1.509a.246.246,0,1,0-.464-.163Z" transform="translate(-310.198 -261.483)" fill="#b79963" stroke="#b79963" stroke-width="0.1"/>
          <path id="Path_58" data-name="Path 58" d="M58.987,164.5v3.05a.924.924,0,0,0,.923.923h1.723a4.529,4.529,0,0,0,7.62,0h1.778a.924.924,0,0,0,.923-.923v-.98a.246.246,0,1,0-.492,0v.98a.432.432,0,0,1-.432.432H59.91a.432.432,0,0,1-.432-.432V164.5a.432.432,0,0,1,.432-.432H71.031a.432.432,0,0,1,.432.432v.913a.246.246,0,0,0,.492,0V164.5a.924.924,0,0,0-.923-.923H69.253a4.529,4.529,0,0,0-7.62,0H59.91A.924.924,0,0,0,58.987,164.5Zm8.676,3.974h.989a4.033,4.033,0,0,1-1.724,1.306A4.313,4.313,0,0,0,67.663,168.477Zm-1.974,0h1.447a2.445,2.445,0,0,1-1.447,1.561Zm-.492,0v1.561a2.445,2.445,0,0,1-1.447-1.561Zm-1.974,0a4.314,4.314,0,0,0,.735,1.306,4.033,4.033,0,0,1-1.724-1.306Zm5.429-4.9h-.989a4.314,4.314,0,0,0-.735-1.305A4.031,4.031,0,0,1,68.652,163.58Zm-2.963-1.561a2.446,2.446,0,0,1,1.447,1.561H65.689Zm-.492,0v1.561H63.751A2.445,2.445,0,0,1,65.2,162.019Zm-1.239.255a4.314,4.314,0,0,0-.735,1.305h-.989A4.031,4.031,0,0,1,63.958,162.274Z" transform="translate(-57.054 -157.507)" fill="#b79963" stroke="#b79963" stroke-width="0.1"/>
        </g>
      </g>
    </g>
  </g>
</svg>
