<svg xmlns="http://www.w3.org/2000/svg" width="35" height="35" viewBox="0 0 35 35">
  <g id="wechat" transform="translate(0.226 -0.056)">
    <g id="Group_1" data-name="Group 1" transform="translate(-0.282)">
      <circle id="Ellipse_1" data-name="Ellipse 1" cx="17.5" cy="17.5" r="17.5" transform="translate(0.056 0.056)" fill="#ffedce"/>
      <path id="Icon_simple-wechat" data-name="Icon simple-wechat" d="M17.1,10.837A4.8,4.8,0,0,0,14.85,8.548a6.181,6.181,0,0,0-5.54.022,4.594,4.594,0,0,0-2.454,3.023,3.882,3.882,0,0,0,.494,2.877,5.3,5.3,0,0,0,3.61,2.359,6.648,6.648,0,0,0,3.15-.207c.611.237,1.156.62,1.749.9-.153-.513-.317-1.021-.491-1.527A4.936,4.936,0,0,0,17,14.2,3.9,3.9,0,0,0,17.1,10.837ZM9.888,3.962a7.345,7.345,0,0,0-6.017-.468A6.124,6.124,0,0,0,.715,5.977a4.658,4.658,0,0,0-.58,3.571,5.469,5.469,0,0,0,2.369,3.2c-.218.617-.425,1.234-.621,1.855.708-.37,1.416-.757,2.125-1.134a7.888,7.888,0,0,0,2.658.376,4.473,4.473,0,0,1-.185-2.143A4.548,4.548,0,0,1,7.928,9.127,6.28,6.28,0,0,1,12.646,7.58,5.5,5.5,0,0,0,9.869,3.963h.02Zm1.259,7.254a.715.715,0,1,1-.915-.923.723.723,0,0,1,.915.923Zm3.482.067a.731.731,0,0,1-1.145.2,1.087,1.087,0,0,1-.25-.53.8.8,0,0,1,.675-.694.728.728,0,0,1,.708,1.028h.011ZM9.433,6.6a1.051,1.051,0,1,1,0-.009V6.6Zm-4.4.177A.893.893,0,1,1,3.87,5.718.9.9,0,0,1,5.033,6.773Z" transform="translate(9.238 7.263)" fill="#b79963"/>
    </g>
  </g>
</svg>
