<svg xmlns="http://www.w3.org/2000/svg" width="35" height="35" viewBox="0 0 35 35">
  <g id="whatsapp" transform="translate(0.266 -0.016)">
    <g id="Group_1" data-name="Group 1" transform="translate(-0.282)">
      <circle id="Ellipse_1" data-name="Ellipse 1" cx="17.5" cy="17.5" r="17.5" transform="translate(0.016 0.016)" fill="#ffedce"/>
      <path id="Icon_awesome-whatsapp" data-name="Icon awesome-whatsapp" d="M12.271,4.347A7.154,7.154,0,0,0,1.015,12.978L0,16.683l3.792-1a7.13,7.13,0,0,0,3.418.87h0a7.221,7.221,0,0,0,7.22-7.152A7.18,7.18,0,0,0,12.271,4.347Zm-5.058,11a5.934,5.934,0,0,1-3.028-.828L3.969,14.4l-2.249.59.6-2.194-.142-.226a5.956,5.956,0,1,1,11.047-3.16,6.011,6.011,0,0,1-6.011,5.947Zm3.26-4.452c-.177-.09-1.057-.522-1.221-.58s-.283-.09-.4.09-.461.58-.567.7-.209.135-.387.045A4.864,4.864,0,0,1,5.464,9.031c-.184-.316.184-.293.525-.976a.331.331,0,0,0-.016-.312c-.045-.09-.4-.97-.551-1.327s-.293-.3-.4-.306S4.8,6.1,4.678,6.1a.662.662,0,0,0-.477.222,2.008,2.008,0,0,0-.625,1.492A3.5,3.5,0,0,0,4.3,9.666a7.986,7.986,0,0,0,3.054,2.7,3.5,3.5,0,0,0,2.146.448,1.83,1.83,0,0,0,1.2-.85,1.5,1.5,0,0,0,.1-.85C10.77,11.032,10.65,10.987,10.473,10.9Z" transform="translate(10.695 8.05)" fill="#b79963"/>
    </g>
  </g>
</svg>
